<?xml version="1.0" standalone="no"?>
<!DOCTYPE svg PUBLIC "-//W3C//DTD SVG 20010904//EN"
 "http://www.w3.org/TR/2001/REC-SVG-20010904/DTD/svg10.dtd">
<svg version="1.0" xmlns="http://www.w3.org/2000/svg"
 width="86.000000pt" height="60.000000pt" viewBox="0 0 86.000000 60.000000"
 preserveAspectRatio="xMidYMid meet">
<metadata>
Created by potrace 1.11, written by Peter Selinger 2001-2013
</metadata>
<g transform="translate(0.000000,60.000000) scale(0.100000,-0.100000)"
fill="#000000" stroke="none">
<path d="M357 544 c-43 -30 -77 -61 -77 -67 0 -7 7 -21 15 -31 8 -11 15 -38
15 -61 0 -33 8 -52 36 -88 20 -26 34 -53 31 -60 -3 -8 -27 -20 -54 -27 -110
-30 -144 -63 -129 -125 20 -79 267 -111 411 -53 59 24 60 25 63 67 4 54 -13
75 -82 96 -82 26 -106 37 -106 47 0 5 15 28 34 51 24 29 36 57 42 92 4 28 14
60 22 72 13 21 12 25 -9 43 -13 10 -27 19 -31 20 -5 0 -8 -32 -8 -71 0 -40 -4
-68 -9 -64 -5 3 -7 38 -4 78 l5 72 -44 32 -45 32 -76 -55z"/>
<path d="M113 482 c-35 -25 -50 -42 -46 -52 3 -8 10 -33 16 -55 5 -22 20 -54
33 -72 13 -17 24 -34 24 -37 0 -2 -24 -12 -52 -21 -70 -23 -90 -41 -86 -79 3
-26 10 -33 48 -47 25 -9 61 -19 80 -21 33 -3 35 -1 38 29 4 39 37 68 96 84
l41 12 -30 13 c-16 7 -35 13 -42 14 -24 0 -23 21 2 57 14 21 25 48 25 60 0 12
5 34 12 48 10 22 9 28 -3 36 -23 14 -24 11 -21 -36 3 -28 0 -45 -7 -45 -7 0
-11 21 -11 54 0 47 -4 57 -26 75 -15 12 -29 21 -33 21 -3 -1 -29 -18 -58 -38z"/>
<path d="M634 480 l-52 -39 14 -38 c7 -21 13 -46 14 -56 0 -10 11 -30 25 -45
14 -15 25 -30 25 -34 0 -3 -24 -14 -52 -24 l-53 -17 47 -16 c61 -20 87 -43 95
-82 6 -31 7 -31 54 -26 72 9 109 31 109 67 0 37 -18 54 -75 70 -26 7 -49 19
-52 26 -3 8 7 28 21 45 14 17 26 41 26 54 0 13 5 36 12 50 10 22 9 28 -3 36
-26 17 -32 9 -26 -36 4 -27 3 -45 -3 -45 -6 0 -10 24 -10 54 0 47 -4 57 -26
75 -15 12 -29 21 -33 21 -3 0 -29 -18 -57 -40z"/>
</g>
</svg>
